<svg xmlns="http://www.w3.org/2000/svg" xmlns:xlink="http://www.w3.org/1999/xlink" viewBox="0 0 109 40" fill="#fff" fill-rule="evenodd" stroke="#000" stroke-linecap="round" stroke-linejoin="round"><use xlink:href="#A" x=".5" y=".5"/><symbol id="A" overflow="visible"><g stroke="none" fill-rule="nonzero"><path d="M26.882 2.75C25.289.323 24.91 0 21.667 0h-.076c-3.243 0-3.603.322-5.215 2.75C14.878 5.026 0 32.258 0 33.017c0 1.1.284 2.143 1.31 3.622 1.043 1.498 2.845 2.333 4.153 1.005.89-.89 10.43-17.333 15.04-23.554.55-.778 1.688-.778 2.257 0 4.608 6.22 14.147 22.662 15.04 23.554 1.31 1.327 3.1.493 4.153-1.005 1.024-1.48 1.31-2.522 1.31-3.622-.02-.76-14.887-28-16.385-30.267z" fill="#1173b6"/><path d="M48.58 8.384h11.87v2.95h-8.377v5.028h7.077v2.96h-7.077v5.817h8.674v2.95H48.58zm18.486 11.97L63 13.811l3.77-.512 2.704 5.305 2.96-5.305h3.584l-4.036 7.055a.6.6 0 0 0 .01.614l4.363 6.708-3.82.4-3.052-5.54-3.164 5.54h-3.912l4.65-7.097c.123-.195.133-.44.01-.635zm14.767 8.93v4.127l-3.46.512V13.289h2.857l.246 1.567h.123a10.37 10.37 0 0 1 2.079-1.352c.768-.38 1.557-.573 2.376-.573.922 0 1.74.174 2.458.522s1.32.86 1.823 1.526.88 1.454 1.147 2.376c.256.922.4 1.956.4 3.103 0 1.27-.174 2.396-.522 3.4s-.82 1.823-1.403 2.5a6.06 6.06 0 0 1-2.017 1.546c-.768.358-1.557.543-2.376.543-.645 0-1.28-.143-1.925-.42s-1.27-.686-1.864-1.208zm0-4.936c.543.46 1.065.8 1.567.963a4.09 4.09 0 0 0 1.413.266c.983 0 1.802-.43 2.468-1.28s.993-2.12.993-3.8c0-1.485-.256-2.642-.758-3.46s-1.3-1.24-2.437-1.24c-1.045 0-2.13.553-3.257 1.66v6.902zm12.105-3.644c0-1.23.195-2.314.573-3.287.38-.963.9-1.782 1.546-2.437a6.92 6.92 0 0 1 2.243-1.526 6.88 6.88 0 0 1 2.652-.522 6.97 6.97 0 0 1 2.663.522c.85.348 1.598.86 2.243 1.526s1.157 1.475 1.546 2.437.584 2.058.584 3.287-.195 2.314-.584 3.287c-.4.963-.9 1.782-1.546 2.437a6.37 6.37 0 0 1-2.243 1.505 7.16 7.16 0 0 1-2.663.512c-.922 0-1.802-.174-2.652-.512s-1.587-.84-2.243-1.505-1.167-1.475-1.546-2.437c-.38-.973-.573-2.058-.573-3.287zm3.554 0c0 1.485.307 2.673.922 3.574a2.93 2.93 0 0 0 2.55 1.342 2.96 2.96 0 0 0 2.56-1.342c.625-.9.932-2.08.932-3.574 0-1.505-.307-2.704-.932-3.595a2.96 2.96 0 0 0-2.56-1.342 2.93 2.93 0 0 0-2.55 1.342c-.614.9-.922 2.1-.922 3.595z" fill="#585d67"/></g></symbol></svg>